<svg xmlns="http://www.w3.org/2000/svg" style="display: none;"><symbol id="recruitment" viewBox="0 0 512 512"><title>recruitment</title><g> <g> <path d="M460.934,268.491c4.524-6.708,7.168-14.784,7.168-23.466v-8.021c0-23.203-18.878-42.081-42.081-42.081 c-11.577,0-22.077,4.701-29.693,12.293C376.622,148.609,321.163,106.275,256,106.275s-120.622,42.333-140.328,100.941 c-7.616-7.592-18.115-12.293-29.693-12.293c-23.203,0-42.081,18.878-42.081,42.081v8.021c0,8.682,2.644,16.758,7.168,23.466 C21.937,274.629,0,300.524,0,331.452v20.134c0,5.522,4.478,10,10,10h52c5.522,0,10-4.478,10-10c0-5.522-4.478-10-10-10H20v-10.134 c0-24.453,19.894-44.347,44.347-44.347h47.329c3.838,16.881,10.565,32.677,19.641,46.831L17.218,448.035 c-14.61,14.611-14.61,38.386,0.001,52.998c7.306,7.306,16.901,10.958,26.498,10.958c9.597,0,19.194-3.653,26.5-10.958 l62.903-62.904c3.905-3.905,3.905-10.237,0-14.143c-3.906-3.904-10.236-3.904-14.143,0L56.075,486.89 c-6.815,6.814-17.901,6.813-24.715,0.001c-6.813-6.814-6.813-17.901,0-24.715L143.367,350.17 c27.167,31.862,67.578,52.105,112.633,52.105c70.328,0,129.35-49.31,144.324-115.17h47.329c24.453,0,44.347,19.894,44.347,44.347 v10.134h-94c-5.522,0-10,4.478-10,10c0,5.522,4.478,10,10,10h104c5.522,0,10-4.478,10-10v-20.134 C512,300.524,490.063,274.629,460.934,268.491z M108.06,245.026c0,12.175-9.905,22.08-22.081,22.08s-22.081-9.905-22.081-22.08 v-8.021c0-12.176,9.905-22.081,22.081-22.081c12.176,0,22.081,9.905,22.081,22.081V245.026z M256,382.275 c-70.579,0-128-57.421-128-128s57.421-128,128-128s128,57.421,128,128S326.579,382.275,256,382.275z M448.101,245.026 c0,12.175-9.905,22.08-22.081,22.08c-12.176,0-22.081-9.905-22.081-22.08v-8.021c0-12.176,9.905-22.081,22.081-22.081 c12.176,0,22.081,9.905,22.081,22.081V245.026z"/> </g> </g><g> <g> <path d="M256,146.275c-59.552,0-108,48.448-108,108c0,30.91,13.056,58.825,33.938,78.53c0.357,0.386,0.74,0.75,1.16,1.08 c19.226,17.621,44.829,28.39,72.902,28.39s53.676-10.77,72.902-28.39c0.42-0.329,0.803-0.694,1.16-1.08 C350.944,313.1,364,285.185,364,254.275C364,194.724,315.552,146.275,256,146.275z M256,342.275 c-20.563,0-39.499-7.091-54.497-18.954c10.625-20.104,31.331-32.753,54.497-32.753s43.872,12.649,54.497,32.753 C295.499,335.184,276.563,342.275,256,342.275z M234.927,249.495v-7.769c0-11.62,9.453-21.073,21.073-21.073 s21.073,9.453,21.073,21.073v7.769c0,11.62-9.453,21.073-21.073,21.073S234.927,261.115,234.927,249.495z M325.125,308.674 c-9.161-14.617-22.57-25.764-38.264-32.12c6.349-7.233,10.212-16.7,10.212-27.058v-7.769c0-22.647-18.426-41.073-41.073-41.073 c-22.647,0-41.073,18.426-41.073,41.073v7.769c0,10.358,3.862,19.825,10.212,27.058c-15.694,6.357-29.102,17.503-38.264,32.12 C175.059,293.692,168,274.793,168,254.275c0-48.523,39.477-88,88-88s88,39.477,88,88C344,274.793,336.941,293.692,325.125,308.674 z"/> </g> </g><g> <g> <path d="M159.87,397.239c-1.86-1.86-4.44-2.93-7.07-2.93s-5.21,1.07-7.07,2.93c-1.859,1.86-2.93,4.44-2.93,7.07 s1.07,5.21,2.93,7.07c1.86,1.859,4.44,2.93,7.07,2.93s5.21-1.07,7.07-2.93c1.859-1.86,2.93-4.44,2.93-7.07 S161.73,399.099,159.87,397.239z"/> </g> </g><g> <g> <path d="M256.203,0.009c-5.522,0-10,4.478-10,10v34.024c0,5.523,4.478,10,10,10c5.522,0,10-4.478,10-10V10.009 C266.203,4.487,261.725,0.009,256.203,0.009z"/> </g> </g><g> <g> <path d="M263.269,69.939c-1.859-1.86-4.43-2.93-7.069-2.93c-2.631,0-5.21,1.069-7.07,2.93c-1.86,1.861-2.93,4.44-2.93,7.07 c0,2.63,1.069,5.21,2.93,7.069c1.86,1.86,4.439,2.931,7.07,2.931c2.64,0,5.21-1.07,7.069-2.931 c1.86-1.859,2.931-4.439,2.931-7.069C266.2,74.379,265.13,71.799,263.269,69.939z"/> </g> </g><g> <g> <path d="M340.979,39.235c-3.906-3.904-10.236-3.904-14.143,0L309.26,56.811c-3.905,3.905-3.905,10.237,0,14.143 c1.954,1.952,4.512,2.929,7.072,2.929s5.118-0.977,7.071-2.929l17.576-17.576C344.884,49.473,344.884,43.141,340.979,39.235z"/> </g> </g><g> <g> <path d="M202.908,56.932l-17.745-17.745c-3.906-3.904-10.236-3.904-14.143,0c-3.905,3.905-3.905,10.237,0,14.143l17.746,17.745 c1.953,1.952,4.512,2.929,7.071,2.929c2.559,0,5.118-0.977,7.071-2.929C206.813,67.17,206.813,60.838,202.908,56.932z"/> </g> </g></symbol><symbol id="curriculum" viewBox="0 0 512 512"><title>curriculum</title><g> <g> <path d="M502,226H314.142l-67.072-67.071c-1.875-1.875-4.418-2.929-7.07-2.929H94c-5.523,0-10,4.477-10,10v294 c0,17.645-14.355,32-32,32s-32-14.355-32-32V176h29c5.523,0,10-4.477,10-10s-4.477-10-10-10H10c-5.523,0-10,4.477-10,10v294 c0,28.673,23.327,52,52,52h410c27.57,0,50-22.43,50-50V236C512,230.477,507.523,226,502,226z M492,462c0,16.542-13.458,30-30,30 H92.961C99.875,483.17,104,472.058,104,460V176h131.857l67.072,67.071c1.875,1.875,4.418,2.929,7.071,2.929h182V462z"/> </g> </g><g> <g> <path d="M486.05,101.603L387.376,2.929C385.501,1.054,382.958,0,380.305,0H146.174C128.433,0,114,14.433,114,32.174V122 c0,5.523,4.477,10,10,10s10-4.477,10-10V32.174C134,25.461,139.461,20,146.174,20h224.131v66.5 c0,17.741,14.433,32.174,32.174,32.174h66.5v70.689c0,5.523,4.477,10,10,10s10-4.477,10-10v-80.689 C488.979,106.022,487.925,103.478,486.05,101.603z M402.479,98.674c-6.713,0-12.174-5.461-12.174-12.174V34.142l64.532,64.532 H402.479z"/> </g> </g><g> <g> <path d="M330.515,112H188c-5.523,0-10,4.477-10,10s4.477,10,10,10h142.515c5.523,0,10-4.477,10-10S336.038,112,330.515,112z"/> </g> </g><g> <g> <path d="M330.515,64H228c-5.523,0-10,4.477-10,10s4.477,10,10,10h102.515c5.523,0,10-4.477,10-10S336.038,64,330.515,64z"/> </g> </g><g> <g> <path d="M195.07,66.93C193.21,65.07,190.63,64,188,64s-5.21,1.07-7.07,2.93S178,71.37,178,74s1.07,5.21,2.93,7.07 S185.37,84,188,84s5.21-1.07,7.07-2.93S198,76.63,198,74S196.93,68.79,195.07,66.93z"/> </g> </g><g> <g> <path d="M340.07,433.93c-1.86-1.86-4.44-2.93-7.07-2.93s-5.21,1.07-7.07,2.93c-1.86,1.86-2.93,4.44-2.93,7.07s1.07,5.21,2.93,7.07 c1.86,1.86,4.44,2.93,7.07,2.93s5.21-1.07,7.07-2.93c1.86-1.86,2.93-4.44,2.93-7.07S341.93,435.79,340.07,433.93z"/> </g> </g><g> <g> <path d="M418,287H178c-16.542,0-30,13.458-30,30v104c0,16.542,13.458,30,30,30h115.5c5.523,0,10-4.477,10-10s-4.477-10-10-10H178 c-5.514,0-10-4.486-10-10V317c0-5.514,4.486-10,10-10h240c5.514,0,10,4.486,10,10v104c0,5.514-4.486,10-10,10h-44.5 c-5.523,0-10,4.477-10,10s4.477,10,10,10H418c16.542,0,30-13.458,30-30V317C448,300.458,434.542,287,418,287z"/> </g> </g><g> <g> <path d="M364.776,323.51c-5.239-1.739-10.902,1.095-12.644,6.335l-14.442,43.451l-14.442-43.451 c-1.743-5.241-7.401-8.079-12.644-6.335c-5.241,1.742-8.077,7.402-6.335,12.644l23.932,72c1.359,4.087,5.182,6.846,9.49,6.846 s8.131-2.758,9.49-6.846l23.932-72C372.853,330.913,370.017,325.252,364.776,323.51z"/> </g> </g><g> <g> <path d="M279.932,379.189c-5.523,0-10,4.477-10,10c0,3.204-2.606,5.811-5.811,5.811h-16.242c-3.204,0-5.811-2.607-5.811-5.811 v-39.378c0-3.204,2.607-5.811,5.811-5.811h16.242c3.204,0,5.811,2.607,5.811,5.811c0,5.523,4.477,10,10,10s10-4.477,10-10 c0-14.232-11.579-25.811-25.811-25.811h-16.242c-14.232,0-25.811,11.579-25.811,25.811v39.378 c0,14.232,11.579,25.811,25.811,25.811h16.242c14.232,0,25.811-11.579,25.811-25.811 C289.932,383.666,285.455,379.189,279.932,379.189z"/> </g> </g></symbol><symbol id="sign-in" viewBox="0 0 67 67"><title>sign-in</title><path d="M4.25,35h39.899L33.86,45.478c-0.781,0.78-0.781,2.142-0.001,2.923c0.391,0.391,0.902,0.634,1.415,0.634 c0.512,0,1.023-0.171,1.414-0.562l12.815-12.801c0.375-0.375,0.586-0.878,0.586-1.408s-0.211-1.036-0.586-1.411l-0.608-0.607 c-0.138-0.2-0.312-0.374-0.513-0.511L36.689,20.042c-0.781-0.781-2.048-0.781-2.828,0c-0.781,0.781-0.781,1.856,0,2.638L42.373,31 H4.25c-1.104,0-2,0.896-2,2S3.146,35,4.25,35z"/><path d="M64.75,59.281V9.541C64.75,4.747,60.842,0,56.003,0H30.002c-4.744,0-9.252,4.576-9.252,9.541v11.84c0,1.104,0.896,2,2,2 s2-0.896,2-2V9.541C24.75,6.792,27.471,4,30.002,4h26.001c2.647,0,4.747,2.937,4.747,5.541v49.74c0,2.663-2.203,3.719-4.747,3.719 H30.002c-2.365,0-5.252-0.887-5.252-3.719v-11.9c0-1.104-0.896-2-2-2s-2,0.896-2,2v11.9c0,4.693,4.181,7.719,9.252,7.719h26.001 C61.188,67,64.75,63.823,64.75,59.281z"/></symbol><symbol id="share" viewBox="0 0 86.906 86.906"><title>share</title><path d="M81.751,28.863l-1.614-1.145c-1.614-1.145-3.231-2.292-4.861-3.415c-1.715-1.183-3.438-2.441-5.104-3.66 c-1.925-1.407-3.916-2.862-5.936-4.229c-0.271-0.183-0.549-0.392-0.838-0.607c-1.447-1.08-3.551-2.459-5.852-2.225 C54.425,13.888,52,17.054,52,19.703v6.986c0-0.001-0.086-0.002-0.272-0.002c-6.82,0-40.721,1.722-40.721,35.72 c0,0.976,0.768,1.805,1.729,1.968c0.111,0.02,0.255,0.028,0.365,0.028c0.838,0,1.621-0.53,1.905-1.344 c0.252-0.72,6.229-17.627,33.084-17.627c1.348,0,2.909,0.044,3.909,0.13v6.515c0,2.173,1.604,4.347,3.699,5.536 c0.729,0.414,1.634,0.624,2.443,0.624c1.989,0,3.643-1.235,4.921-2.228c0.343-0.266,0.698-0.522,1.007-0.72 c1.19-0.767,2.38-1.593,3.515-2.392c0.575-0.404,1.157-0.809,1.729-1.202c3.145-2.156,6.299-4.422,9.347-6.612l0.869-0.624 c0.396-0.283,0.799-0.562,1.201-0.842c0.336-0.232,0.671-0.465,0.94-0.657c2.332-1.524,5.236-3.421,5.236-7.071 C86.908,32.373,84.505,30.738,81.751,28.863z M79.422,39.655c-0.319,0.227-0.644,0.451-0.968,0.676 c-0.42,0.291-0.841,0.583-1.255,0.88l-0.869,0.625c-3.03,2.178-6.162,4.43-9.271,6.562c-0.587,0.403-1.173,0.816-1.76,1.229 c-1.102,0.775-2.24,1.577-3.36,2.297c-0.428,0.274-0.854,0.605-1.266,0.926c-0.754,0.585-1.786,1.387-2.405,1.387 c-0.076,0-0.435-0.012-0.594-0.103C56.862,53.673,56,52.788,56,52.076v-8.372c0-1.038-0.544-1.903-1.578-1.992 c-2.157-0.187-4.16-0.28-6.198-0.28c-17.713,0-27.312,6.871-32.297,12.629c1.854-8.38,6.738-14.622,14.529-18.616 c8.377-4.295,17.835-4.758,21.506-4.758c1.061,0,1.69-0.153,1.725-0.15c0.043,0.002,0.095-0.187,0.138-0.187H54.5 c1.104,0,1.5-0.515,1.5-1.619v-9.028c0-0.923,1.148-2.063,1.937-2.141c0.805-0.056,1.988,0.736,2.942,1.449 c0.342,0.255,0.734,0.501,1.053,0.716c1.959,1.326,3.951,2.76,5.848,4.146c1.688,1.234,3.45,2.511,5.211,3.724 c1.614,1.113,3.225,2.25,4.823,3.385l1.652,1.168c2.925,1.99,3.44,2.55,3.44,3.74C82.906,37.161,81.852,38.065,79.422,39.655z"/><path d="M61.682,73.35c5.027,0,8.318-3.455,8.318-8.541v-5.078c0-1.104-0.896-2-2-2s-2,0.896-2,2v5.078 c0,2.897-1.481,4.541-4.318,4.541H9.787C6.822,69.35,4,67.569,4,64.809V31.703c0-2.741,2.872-5.353,5.787-5.353H29.5 c1.104,0,2-0.896,2-2s-0.896-2-2-2H9.787C4.666,22.35,0,26.755,0,31.703v33.106c0,4.92,4.666,8.541,9.787,8.541H61.682z"/></symbol><symbol id="building" viewBox="0 0 128 128"><title>building</title><path fill-rule="evenodd" clip-rule="evenodd" d="M28,40h-8v8h8V40z M60,32h-8v8h8V32z M76,32h-8v8h8V32z M92,32h-8v8h8V32z M60,16h-8v8h8V16z M76,16h-8v8h8V16z M92,16h-8v8h8V16z M60,64h-8v8h8V64z M76,64h-8v8h8V64z M92,64h-8v8h8V64z M60,80h-8v8h8V80 z M92,80h-8v8h8V80z M60,96h-8v8h8V96z M92,96h-8v8h8V96z M60,48h-8v8h8V48z M76,48h-8v8h8V48z M92,48h-8v8h8V48z M28,56h-8v8h8 V56z M28,72h-8v8h8V72z M28,88h-8v8h8V88z M28,104h-8v8h8V104z M76,80h-8v8h8V80z M116,56h-8V8c0-4.422-3.578-8-8-8H44 c-4.422,0-8,3.578-8,8v16H12c-4.422,0-8,3.578-8,8v88c0,4.422,3.578,8,8,8h104c4.422,0,8-3.578,8-8V64 C124,59.578,120.422,56,116,56z M36,120H12V32h24V120z M100,120H76V96h-8v24H44V8h56V120z M116,120h-8v-8h8V120z M116,104h-8v-8h8 V104z M116,88h-8v-8h8V88z M116,72h-8v-8h8V72z"/></symbol><symbol id="addition-sign" viewBox="0 0 612 612"><title>addition-sign</title><path d="M535.5,229.5h-153v-153C382.5,34.253,348.247,0,306,0s-76.5,34.253-76.5,76.5v153h-153C34.253,229.5,0,263.753,0,306 s34.253,76.5,76.5,76.5h153v153c0,42.247,34.253,76.5,76.5,76.5s76.5-34.253,76.5-76.5v-153h153c42.247,0,76.5-34.253,76.5-76.5 S577.747,229.5,535.5,229.5z"/></symbol><symbol id="logout" viewBox="0 0 128 128"><title>logout</title><path d="M120,0H24c-4.422,0-8,3.582-8,8v22.234c2.367-2.133,5.063-3.738,8-4.781V8h96v112H24v-17.453 c-2.938-1.043-5.633-2.648-8-4.781V120c0,4.418,3.578,8,8,8h96c4.422,0,8-3.582,8-8V8C128,3.582,124.422,0,120,0z M88,16v96h24V16 H88z M104,104h-8V24h8V104z M32,96c4.273,0,8.289-1.664,11.313-4.688c3.117-3.117,4.68-7.215,4.68-11.313H64 c8.82,0,16-7.176,16-16c0-8.82-7.18-16-16-16H47.992c0-4.098-1.563-8.195-4.68-11.313C40.289,33.664,36.273,32,32,32 s-8.289,1.664-11.313,4.688l-16,16C1.664,55.711,0,59.727,0,64s1.664,8.289,4.688,11.313l16,16C23.711,94.336,27.727,96,32,96z M10.344,58.344l16-16C27.906,40.781,29.953,40,32,40s4.094,0.781,5.656,2.344c3.125,3.125,3.125,8.188,0,11.313L35.313,56H64 c4.422,0,8,3.582,8,8s-3.578,8-8,8H35.313l2.344,2.344c3.125,3.125,3.125,8.188,0,11.313C36.094,87.219,34.047,88,32,88 s-4.094-0.781-5.656-2.344l-16-16C7.219,66.531,7.219,61.469,10.344,58.344z"/></symbol><symbol id="correct-symbol" viewBox="0 0 442.533 442.533"><title>correct-symbol</title><path d="M434.539,98.499l-38.828-38.828c-5.324-5.328-11.799-7.993-19.41-7.993c-7.618,0-14.093,2.665-19.417,7.993L169.59,247.248 l-83.939-84.225c-5.33-5.33-11.801-7.992-19.412-7.992c-7.616,0-14.087,2.662-19.417,7.992L7.994,201.852 C2.664,207.181,0,213.654,0,221.269c0,7.609,2.664,14.088,7.994,19.416l103.351,103.349l38.831,38.828 c5.327,5.332,11.8,7.994,19.414,7.994c7.611,0,14.084-2.669,19.414-7.994l38.83-38.828L434.539,137.33 c5.325-5.33,7.994-11.802,7.994-19.417C442.537,110.302,439.864,103.829,434.539,98.499z"/></symbol></svg>